# Blender v2.93.1 OBJ File: ''
# www.blender.org
mtllib sunglasses.mtl
o Plane
v -0.100000 -0.050000 -0.000000
v 0.100000 -0.050000 -0.000000
v -0.100000 0.050000 0.000000
v 0.100000 0.050000 0.000000
v -0.230000 -0.283306 -0.000000
v -0.200000 0.116695 0.000000
v 0.230000 -0.283306 -0.000000
v 0.200000 0.116695 0.000000
v -0.750000 -0.283306 -0.000000
v -0.750000 0.116695 0.000000
v 0.750000 -0.283306 -0.000000
v 0.750000 0.116695 0.000000
v -0.862500 -0.008039 -0.000000
v -0.862500 0.091961 0.000000
v 0.862500 -0.008039 -0.000000
v 0.862500 0.091961 0.000000
v -0.862500 -0.008039 -1.250000
v -0.862500 0.091961 -1.250000
v 0.862500 -0.008039 -1.250000
v 0.862500 0.091961 -1.250000
v -0.862500 -0.043395 -1.284645
v -0.862500 0.027316 -1.355356
v 0.862500 -0.043395 -1.284645
v 0.862500 0.027316 -1.355356
v -0.862500 -0.107773 -1.301323
v -0.862500 -0.106088 -1.401309
v 0.862500 -0.107773 -1.301323
v 0.862500 -0.106088 -1.401309
v 0.150000 0.083347 0.000000
v 0.120000 -0.166653 -0.000000
v -0.120000 -0.166653 -0.000000
v -0.150000 0.083347 0.000000
v 0.806250 0.104328 0.000000
v 0.806250 -0.245672 -0.000000
v -0.806250 -0.245672 -0.000000
v -0.806250 0.104328 0.000000
v -0.100000 -0.050000 -0.030000
v 0.100000 -0.050000 -0.030000
v -0.100000 0.050000 -0.030000
v 0.100000 0.050000 -0.030000
v -0.230000 -0.283306 -0.030000
v -0.200000 0.116695 -0.030000
v 0.230000 -0.283306 -0.030000
v 0.200000 0.116695 -0.030000
v -0.750000 -0.283306 -0.030000
v -0.750000 0.116695 -0.030000
v 0.750000 -0.283306 -0.030000
v 0.750000 0.116695 -0.030000
v -0.848247 -0.008039 -0.026397
v -0.842696 0.091961 -0.022533
v 0.848247 -0.008039 -0.026397
v 0.842696 0.091961 -0.022533
v -0.832500 -0.008039 -1.250000
v -0.832500 0.091961 -1.250000
v 0.832500 -0.008039 -1.250000
v 0.832500 0.091961 -1.250000
v -0.832500 -0.043395 -1.284645
v -0.832500 0.027316 -1.355356
v 0.832500 -0.043395 -1.284645
v 0.832500 0.027316 -1.355356
v -0.832500 -0.107773 -1.301323
v -0.832500 -0.106088 -1.401309
v 0.832500 -0.107773 -1.301323
v 0.832500 -0.106088 -1.401309
v 0.150000 0.083347 -0.030000
v 0.120000 -0.166653 -0.030000
v -0.120000 -0.166653 -0.030000
v -0.150000 0.083347 -0.030000
v 0.806250 0.104328 -0.029999
v 0.806250 -0.245672 -0.030000
v -0.806250 -0.245672 -0.030000
v -0.806250 0.104328 -0.029999
vt 0.000000 0.000000
vt 1.000000 0.000000
vt 1.000000 1.000000
vt 0.000000 1.000000
vt 0.000000 0.000000
vt 0.000000 1.000000
vt 0.000000 1.000000
vt 0.000000 0.000000
vt 1.000000 1.000000
vt 1.000000 0.000000
vt 1.000000 0.000000
vt 1.000000 1.000000
vt 1.000000 0.000000
vt 1.000000 1.000000
vt 0.000000 1.000000
vt 0.000000 0.000000
vt 1.000000 1.000000
vt 1.000000 0.000000
vt 1.000000 0.000000
vt 1.000000 1.000000
vt 0.000000 0.000000
vt 0.000000 1.000000
vt 0.000000 1.000000
vt 0.000000 0.000000
vt 1.000000 0.000000
vt 1.000000 1.000000
vt 0.000000 1.000000
vt 0.000000 0.000000
vt 1.000000 0.000000
vt 1.000000 1.000000
vt 0.000000 1.000000
vt 0.000000 0.000000
vt 1.000000 0.000000
vt 1.000000 1.000000
vt 0.000000 1.000000
vt 0.000000 0.000000
vt 0.000000 0.000000
vt 0.000000 1.000000
vt 1.000000 1.000000
vt 1.000000 0.000000
vt 0.000000 0.000000
vt 0.000000 0.000000
vt 0.000000 1.000000
vt 0.000000 1.000000
vt 1.000000 1.000000
vt 1.000000 1.000000
vt 1.000000 0.000000
vt 1.000000 0.000000
vt 1.000000 1.000000
vt 1.000000 0.000000
vt 0.000000 0.000000
vt 0.000000 1.000000
vt 1.000000 1.000000
vt 1.000000 1.000000
vt 1.000000 0.000000
vt 1.000000 0.000000
vt 0.000000 0.000000
vt 0.000000 0.000000
vt 0.000000 1.000000
vt 0.000000 1.000000
vt 1.000000 1.000000
vt 1.000000 0.000000
vt 0.000000 0.000000
vt 0.000000 1.000000
vt 1.000000 1.000000
vt 1.000000 0.000000
vt 0.000000 0.000000
vt 0.000000 1.000000
vt 1.000000 1.000000
vt 1.000000 0.000000
vt 0.000000 0.000000
vt 0.000000 1.000000
vn 0.0000 -0.0000 1.0000
vn 1.0000 0.0000 0.0000
vn -1.0000 0.0000 0.0000
vn 0.0000 0.0000 -1.0000
vn 0.1117 0.0099 -0.9937
vn -0.1117 0.0099 -0.9937
vn -0.9996 -0.0279 0.0106
vn 0.9996 -0.0279 0.0106
vn 0.0000 -1.0000 0.0000
vn 0.0000 1.0000 0.0000
vn 0.9856 -0.1690 0.0000
vn 0.5549 0.8319 0.0000
vn -0.5549 0.8319 0.0000
vn -0.7275 -0.6861 0.0000
vn 0.2147 0.9767 0.0000
vn 0.9510 -0.1948 -0.2403
vn -0.5561 -0.8311 0.0000
vn -0.2640 0.9594 -0.0995
vn 0.0000 0.8523 -0.5230
vn 0.0000 -0.6999 0.7142
vn 0.0000 -0.9999 -0.0169
vn 0.0000 0.3257 -0.9455
vn 0.0000 -0.2508 0.9680
vn -0.9856 -0.1690 0.0000
vn 0.7275 -0.6861 0.0000
vn 0.2640 0.9594 -0.0995
vn 0.5561 -0.8311 0.0000
vn -0.9510 -0.1948 -0.2403
vn -0.2147 0.9767 0.0000
usemtl Material.001
s off
f 1/1/1 2/2/1 4/3/1 3/4/1
f 31/5/1 32/6/1 6/7/1 5/8/1
f 29/9/1 30/10/1 7/11/1 8/12/1
f 8/12/1 7/11/1 11/13/1 12/14/1
f 5/8/1 6/7/1 10/15/1 9/16/1
f 33/17/1 34/18/1 15/19/1 16/20/1
f 35/21/1 36/22/1 14/23/1 13/24/1
f 16/20/2 15/19/2 19/25/2 20/26/2
f 13/24/3 14/23/3 18/27/3 17/28/3
f 20/26/2 19/25/2 23/29/2 24/30/2
f 17/28/3 18/27/3 22/31/3 21/32/3
f 24/30/2 23/29/2 27/33/2 28/34/2
f 21/32/3 22/31/3 26/35/3 25/36/3
f 4/3/1 2/2/1 30/10/1 29/9/1
f 1/1/1 3/4/1 32/6/1 31/5/1
f 12/14/1 11/13/1 34/18/1 33/17/1
f 9/16/1 10/15/1 36/22/1 35/21/1
f 37/37/4 39/38/4 40/39/4 38/40/4
f 67/41/4 41/42/4 42/43/4 68/44/4
f 65/45/4 44/46/4 43/47/4 66/48/4
f 44/46/4 48/49/4 47/50/4 43/47/4
f 41/42/4 45/51/4 46/52/4 42/43/4
f 69/53/5 52/54/5 51/55/5 70/56/5
f 71/57/6 49/58/6 50/59/6 72/60/6
f 52/54/7 56/61/7 55/62/7 51/55/7
f 49/58/8 53/63/8 54/64/8 50/59/8
f 56/61/3 60/65/3 59/66/3 55/62/3
f 53/63/2 57/67/2 58/68/2 54/64/2
f 60/65/3 64/69/3 63/70/3 59/66/3
f 57/67/2 61/71/2 62/72/2 58/68/2
f 40/39/4 65/45/4 66/48/4 38/40/4
f 37/37/4 67/41/4 68/44/4 39/38/4
f 48/49/4 69/53/4 70/56/4 47/50/4
f 45/51/4 71/57/4 72/60/4 46/52/4
f 2/2/9 1/1/9 37/37/9 38/40/9
f 3/4/10 4/3/10 40/39/10 39/38/10
f 1/1/11 31/5/11 67/41/11 37/37/11
f 6/7/12 32/6/12 68/44/12 42/43/12
f 4/3/13 29/9/13 65/45/13 40/39/13
f 7/11/14 30/10/14 66/48/14 43/47/14
f 8/12/10 12/14/10 48/49/10 44/46/10
f 11/13/9 7/11/9 43/47/9 47/50/9
f 5/8/9 9/16/9 45/51/9 41/42/9
f 10/15/10 6/7/10 42/43/10 46/52/10
f 12/14/15 33/17/15 69/53/15 48/49/15
f 15/19/16 34/18/16 70/56/16 51/55/16
f 9/16/17 35/21/17 71/57/17 45/51/17
f 14/23/18 36/22/18 72/60/18 50/59/18
f 16/20/10 20/26/10 56/61/10 52/54/10
f 19/25/9 15/19/9 51/55/9 55/62/9
f 13/24/9 17/28/9 53/63/9 49/58/9
f 18/27/10 14/23/10 50/59/10 54/64/10
f 20/26/19 24/30/19 60/65/19 56/61/19
f 23/29/20 19/25/20 55/62/20 59/66/20
f 17/28/20 21/32/20 57/67/20 53/63/20
f 22/31/19 18/27/19 54/64/19 58/68/19
f 25/36/21 26/35/21 62/72/21 61/71/21
f 28/34/21 27/33/21 63/70/21 64/69/21
f 24/30/22 28/34/22 64/69/22 60/65/22
f 27/33/23 23/29/23 59/66/23 63/70/23
f 21/32/23 25/36/23 61/71/23 57/67/23
f 26/35/22 22/31/22 58/68/22 62/72/22
f 29/9/13 8/12/13 44/46/13 65/45/13
f 30/10/24 2/2/24 38/40/24 66/48/24
f 31/5/25 5/8/25 41/42/25 67/41/25
f 32/6/12 3/4/12 39/38/12 68/44/12
f 33/17/26 16/20/26 52/54/26 69/53/26
f 34/18/27 11/13/27 47/50/27 70/56/27
f 35/21/28 13/24/28 49/58/28 71/57/28
f 36/22/29 10/15/29 46/52/29 72/60/29
